<?xml version="1.0" encoding="UTF-8" standalone="no" ?>
<!DOCTYPE svg PUBLIC "-//W3C//DTD SVG 1.1//EN" "http://www.w3.org/Graphics/SVG/1.1/DTD/svg11.dtd">
<svg xmlns="http://www.w3.org/2000/svg" xmlns:xlink="http://www.w3.org/1999/xlink" version="1.1" width="1080" height="1080" viewBox="0 0 1080 1080" xml:space="preserve">
<desc>Created with Fabric.js 5.2.4</desc>
<defs>
</defs>
<g transform="matrix(1 0 0 1 540 540)" id="823d57a7-2456-4b34-b227-4afd5e1cd110"  >
<rect style="stroke: none; stroke-width: 1; stroke-dasharray: none; stroke-linecap: butt; stroke-dashoffset: 0; stroke-linejoin: miter; stroke-miterlimit: 4; fill: rgb(255,255,255); fill-rule: nonzero; opacity: 1; visibility: hidden;" vector-effect="non-scaling-stroke"  x="-540" y="-540" rx="0" ry="0" width="1080" height="1080" />
</g>
<g transform="matrix(1 0 0 1 540 540)" id="caa2d32a-22e0-4b55-982c-c1f750923e4d"  >
</g>
<g transform="matrix(10.8 0 0 10.8 540 540)"  >
<g style=""   >
		<g transform="matrix(1 0 0 1 0 0)"  >
<path style="stroke: none; stroke-width: 1; stroke-dasharray: none; stroke-linecap: butt; stroke-dashoffset: 0; stroke-linejoin: miter; stroke-miterlimit: 4; fill: rgb(199,237,230); fill-rule: nonzero; opacity: 1;" vector-effect="non-scaling-stroke"  transform=" translate(-50, -50)" d="M 87.215 56.71 C 88.35 54.555 89 52.105 89 49.5 C 89 42.879 84.841 37.243 78.999 35.022 C 78.999 35.015 79 35.008 79 35 C 79 23.402 69.598 14 58 14 C 48.216 14 40.019 20.701 37.687 29.756999999999998 C 36.211 29.272 34.638 29 33 29 C 25.308 29 18.977 34.793 18.11 42.252 C 12.906 43.353 9 47.969 9 53.5 C 9 59.851 14.149 65 20.5 65 C 20.677 65 20.852 64.988 21.026 64.978 C 21.022 65.153 21 65.324 21 65.5 C 21 76.822 30.178 86 41.5 86 C 47.937 86 53.675 83.028 57.434 78.386 C 59.612 80.611 62.64 82 66 82 C 70.65 82 74.674 79.35 76.666 75.482 C 77.718 75.817 78.837 76 80 76 C 86.075 76 91 71.075 91 65 C 91 61.689 89.53 58.727 87.215 56.71 z" stroke-linecap="round" />
</g>
		<g transform="matrix(1 0 0 1 -39.55 0.5)"  >
<path style="stroke: none; stroke-width: 1; stroke-dasharray: none; stroke-linecap: butt; stroke-dashoffset: 0; stroke-linejoin: miter; stroke-miterlimit: 4; fill: rgb(255,255,255); fill-rule: nonzero; opacity: 1;" vector-effect="non-scaling-stroke"  transform=" translate(-10.45, -50.5)" d="M 15.405 51 L 5.5 51 C 5.224 51 5 50.776 5 50.5 C 5 50.224 5.224 50 5.5 50 L 15.405 50 C 15.681 50 15.905 50.224 15.905 50.5 C 15.905 50.776 15.682 51 15.405 51 z" stroke-linecap="round" />
</g>
		<g transform="matrix(1 0 0 1 -32 0.5)"  >
<path style="stroke: none; stroke-width: 1; stroke-dasharray: none; stroke-linecap: butt; stroke-dashoffset: 0; stroke-linejoin: miter; stroke-miterlimit: 4; fill: rgb(255,255,255); fill-rule: nonzero; opacity: 1;" vector-effect="non-scaling-stroke"  transform=" translate(-18, -50.5)" d="M 18.5 51 L 17.5 51 C 17.224 51 17 50.776 17 50.5 C 17 50.224 17.224 50 17.5 50 L 18.5 50 C 18.776 50 19 50.224 19 50.5 C 19 50.776 18.777 51 18.5 51 z" stroke-linecap="round" />
</g>
		<g transform="matrix(1 0 0 1 -31 2.5)"  >
<path style="stroke: none; stroke-width: 1; stroke-dasharray: none; stroke-linecap: butt; stroke-dashoffset: 0; stroke-linejoin: miter; stroke-miterlimit: 4; fill: rgb(255,255,255); fill-rule: nonzero; opacity: 1;" vector-effect="non-scaling-stroke"  transform=" translate(-19, -52.5)" d="M 23.491 53 L 14.5 53 C 14.224 53 14 52.776 14 52.5 C 14 52.224 14.224 52 14.5 52 L 23.491 52 C 23.767 52 23.991 52.224 23.991 52.5 C 23.991 52.776 23.767 53 23.491 53 z" stroke-linecap="round" />
</g>
		<g transform="matrix(1 0 0 1 -38 2.5)"  >
<path style="stroke: none; stroke-width: 1; stroke-dasharray: none; stroke-linecap: butt; stroke-dashoffset: 0; stroke-linejoin: miter; stroke-miterlimit: 4; fill: rgb(255,255,255); fill-rule: nonzero; opacity: 1;" vector-effect="non-scaling-stroke"  transform=" translate(-12, -52.5)" d="M 12.5 53 L 11.5 53 C 11.224 53 11 52.776 11 52.5 C 11 52.224 11.224 52 11.5 52 L 12.5 52 C 12.776 52 13 52.224 13 52.5 C 13 52.776 12.777 53 12.5 53 z" stroke-linecap="round" />
</g>
		<g transform="matrix(1 0 0 1 -41.5 2.5)"  >
<path style="stroke: none; stroke-width: 1; stroke-dasharray: none; stroke-linecap: butt; stroke-dashoffset: 0; stroke-linejoin: miter; stroke-miterlimit: 4; fill: rgb(255,255,255); fill-rule: nonzero; opacity: 1;" vector-effect="non-scaling-stroke"  transform=" translate(-8.5, -52.5)" d="M 9.5 53 L 7.5 53 C 7.224 53 7 52.776 7 52.5 C 7 52.224 7.224 52 7.5 52 L 9.5 52 C 9.776 52 10 52.224 10 52.5 C 10 52.776 9.777 53 9.5 53 z" stroke-linecap="round" />
</g>
		<g transform="matrix(1 0 0 1 -35.5 4.5)"  >
<path style="stroke: none; stroke-width: 1; stroke-dasharray: none; stroke-linecap: butt; stroke-dashoffset: 0; stroke-linejoin: miter; stroke-miterlimit: 4; fill: rgb(255,255,255); fill-rule: nonzero; opacity: 1;" vector-effect="non-scaling-stroke"  transform=" translate(-14.5, -54.5)" d="M 15.5 55 L 13.5 55 C 13.224 55 13 54.776 13 54.5 C 13 54.224 13.224 54 13.5 54 L 15.5 54 C 15.776 54 16 54.224 16 54.5 C 16 54.776 15.776 55 15.5 55 z" stroke-linecap="round" />
</g>
		<g transform="matrix(1 0 0 1 -32 -3.5)"  >
<path style="stroke: none; stroke-width: 1; stroke-dasharray: none; stroke-linecap: butt; stroke-dashoffset: 0; stroke-linejoin: miter; stroke-miterlimit: 4; fill: rgb(255,255,255); fill-rule: nonzero; opacity: 1;" vector-effect="non-scaling-stroke"  transform=" translate(-18, -46.5)" d="M 18.5 46 C 18.323 46 17.677 46 17.5 46 C 17.224 46 17 46.224 17 46.5 C 17 46.776 17.224 47 17.5 47 C 17.677 47 18.323 47 18.5 47 C 18.776 47 19 46.776 19 46.5 C 19 46.224 18.776 46 18.5 46 z" stroke-linecap="round" />
</g>
		<g transform="matrix(1 0 0 1 -34 -1.5)"  >
<path style="stroke: none; stroke-width: 1; stroke-dasharray: none; stroke-linecap: butt; stroke-dashoffset: 0; stroke-linejoin: miter; stroke-miterlimit: 4; fill: rgb(255,255,255); fill-rule: nonzero; opacity: 1;" vector-effect="non-scaling-stroke"  transform=" translate(-16, -48.5)" d="M 18.5 48 C 18.323 48 13.677 48 13.5 48 C 13.224 48 13 48.224 13 48.5 C 13 48.776 13.224 49 13.5 49 C 13.677 49 18.323 49 18.5 49 C 18.776 49 19 48.776 19 48.5 C 19 48.224 18.776 48 18.5 48 z" stroke-linecap="round" />
</g>
		<g transform="matrix(1 0 0 1 -28 0.5)"  >
<path style="stroke: none; stroke-width: 1; stroke-dasharray: none; stroke-linecap: butt; stroke-dashoffset: 0; stroke-linejoin: miter; stroke-miterlimit: 4; fill: rgb(255,255,255); fill-rule: nonzero; opacity: 1;" vector-effect="non-scaling-stroke"  transform=" translate(-22, -50.5)" d="M 23.5 50 C 23.323 50 20.677 50 20.5 50 C 20.224 50 20 50.224 20 50.5 C 20 50.776 20.224 51 20.5 51 C 20.677 51 23.323 51 23.5 51 C 23.776 51 24 50.776 24 50.5 C 24 50.224 23.776 50 23.5 50 z" stroke-linecap="round" />
</g>
		<g transform="matrix(1 0 0 1 30.5 -4.5)"  >
<path style="stroke: none; stroke-width: 1; stroke-dasharray: none; stroke-linecap: butt; stroke-dashoffset: 0; stroke-linejoin: miter; stroke-miterlimit: 4; fill: rgb(255,255,255); fill-rule: nonzero; opacity: 1;" vector-effect="non-scaling-stroke"  transform=" translate(-80.5, -45.5)" d="M 85.5 46 L 75.5 46 C 75.224 46 75 45.776 75 45.5 C 75 45.224 75.224 45 75.5 45 L 85.5 45 C 85.776 45 86 45.224 86 45.5 C 86 45.776 85.776 46 85.5 46 z" stroke-linecap="round" />
</g>
		<g transform="matrix(1 0 0 1 38.5 -4.5)"  >
<path style="stroke: none; stroke-width: 1; stroke-dasharray: none; stroke-linecap: butt; stroke-dashoffset: 0; stroke-linejoin: miter; stroke-miterlimit: 4; fill: rgb(255,255,255); fill-rule: nonzero; opacity: 1;" vector-effect="non-scaling-stroke"  transform=" translate(-88.5, -45.5)" d="M 89.5 46 L 87.5 46 C 87.224 46 87 45.776 87 45.5 C 87 45.224 87.224 45 87.5 45 L 89.5 45 C 89.776 45 90 45.224 90 45.5 C 90 45.776 89.776 46 89.5 46 z" stroke-linecap="round" />
</g>
		<g transform="matrix(1 0 0 1 39.5 -2.5)"  >
<path style="stroke: none; stroke-width: 1; stroke-dasharray: none; stroke-linecap: butt; stroke-dashoffset: 0; stroke-linejoin: miter; stroke-miterlimit: 4; fill: rgb(255,255,255); fill-rule: nonzero; opacity: 1;" vector-effect="non-scaling-stroke"  transform=" translate(-89.5, -47.5)" d="M 94.5 48 L 84.5 48 C 84.224 48 84 47.776 84 47.5 C 84 47.224 84.224 47 84.5 47 L 94.5 47 C 94.776 47 95 47.224 95 47.5 C 95 47.776 94.777 48 94.5 48 z" stroke-linecap="round" />
</g>
		<g transform="matrix(1 0 0 1 32 -2.5)"  >
<path style="stroke: none; stroke-width: 1; stroke-dasharray: none; stroke-linecap: butt; stroke-dashoffset: 0; stroke-linejoin: miter; stroke-miterlimit: 4; fill: rgb(255,255,255); fill-rule: nonzero; opacity: 1;" vector-effect="non-scaling-stroke"  transform=" translate(-82, -47.5)" d="M 82.5 48 L 81.5 48 C 81.224 48 81 47.776 81 47.5 C 81 47.224 81.224 47 81.5 47 L 82.5 47 C 82.776 47 83 47.224 83 47.5 C 83 47.776 82.776 48 82.5 48 z" stroke-linecap="round" />
</g>
		<g transform="matrix(1 0 0 1 28.44 -2.5)"  >
<path style="stroke: none; stroke-width: 1; stroke-dasharray: none; stroke-linecap: butt; stroke-dashoffset: 0; stroke-linejoin: miter; stroke-miterlimit: 4; fill: rgb(255,255,255); fill-rule: nonzero; opacity: 1;" vector-effect="non-scaling-stroke"  transform=" translate(-78.44, -47.5)" d="M 79.375 48 L 77.5 48 C 77.224 48 77 47.776 77 47.5 C 77 47.224 77.224 47 77.5 47 L 79.375 47 C 79.651 47 79.875 47.224 79.875 47.5 C 79.875 47.776 79.651 48 79.375 48 z" stroke-linecap="round" />
</g>
		<g transform="matrix(1 0 0 1 36 -6.5)"  >
<path style="stroke: none; stroke-width: 1; stroke-dasharray: none; stroke-linecap: butt; stroke-dashoffset: 0; stroke-linejoin: miter; stroke-miterlimit: 4; fill: rgb(255,255,255); fill-rule: nonzero; opacity: 1;" vector-effect="non-scaling-stroke"  transform=" translate(-86, -43.5)" d="M 88.5 44 L 83.5 44 C 83.224 44 83 43.776 83 43.5 C 83 43.224 83.224 43 83.5 43 L 88.5 43 C 88.776 43 89 43.224 89 43.5 C 89 43.776 88.777 44 88.5 44 z" stroke-linecap="round" />
</g>
		<g transform="matrix(1 0 0 1 34.5 -0.5)"  >
<path style="stroke: none; stroke-width: 1; stroke-dasharray: none; stroke-linecap: butt; stroke-dashoffset: 0; stroke-linejoin: miter; stroke-miterlimit: 4; fill: rgb(255,255,255); fill-rule: nonzero; opacity: 1;" vector-effect="non-scaling-stroke"  transform=" translate(-84.5, -49.5)" d="M 85.5 50 L 83.5 50 C 83.224 50 83 49.776 83 49.5 C 83 49.224 83.224 49 83.5 49 L 85.5 49 C 85.776 49 86 49.224 86 49.5 C 86 49.776 85.776 50 85.5 50 z" stroke-linecap="round" />
</g>
		<g transform="matrix(1 0 0 1 -12 -25.75)"  >
<path style="stroke: none; stroke-width: 1; stroke-dasharray: none; stroke-linecap: butt; stroke-dashoffset: 0; stroke-linejoin: miter; stroke-miterlimit: 4; fill: rgb(253,252,239); fill-rule: nonzero; opacity: 1;" vector-effect="non-scaling-stroke"  transform=" translate(-38, -24.25)" d="M 43.875 32.5 C 43.875 32.5 47.515 32.5 50 32.5 C 52.485 32.5 54.5 30.485 54.5 28 C 54.5 25.667 52.718 23.771 50.445 23.545 C 50.467 23.364 50.5 23.187 50.5 23 C 50.5 20.515 48.485 18.5 46 18.5 C 44.562 18.5 43.297 19.186 42.473 20.236 C 42.333 17.6 40.171 15.5 37.5 15.5 C 34.739 15.5 32.5 17.739 32.5 20.5 C 32.5 20.946 32.577 21.37 32.687 21.782 C 32.045 21.005 31.086 20.5 30 20.5 C 28.219 20.5 26.766 21.835 26.545 23.555 C 26.364 23.533 26.187 23.5 26 23.5 C 23.515 23.5 21.5 25.515 21.5 28 C 21.5 30.485 23.515 32.5 26 32.5 C 28.485 32.5 35.5 32.5 35.5 32.5 L 40.875 32.5 L 40.875 33 L 43.875 33 L 43.875 32.5 z" stroke-linecap="round" />
</g>
		<g transform="matrix(1 0 0 1 -12 -26)"  >
<path style="stroke: none; stroke-width: 1; stroke-dasharray: none; stroke-linecap: butt; stroke-dashoffset: 0; stroke-linejoin: miter; stroke-miterlimit: 4; fill: rgb(71,43,41); fill-rule: nonzero; opacity: 1;" vector-effect="non-scaling-stroke"  transform=" translate(-38, -24)" d="M 37.5 15 C 34.467 15 32 17.467 32 20.5 C 32 20.516 32 20.531 32 20.547 C 31.398 20.192 30.71 20 30 20 C 28.169 20 26.589 21.261 26.142 23.005 C 26.095 23.002 26.048 23 26 23 C 23.243 23 21 25.243 21 28 C 21 30.757 23.243 33 26 33 L 40.875 33 C 41.151 33 41.375 32.776 41.375 32.5 C 41.375 32.224 41.151 32 40.875 32 L 26 32 C 23.794 32 22 30.206 22 28 C 22 25.794 23.794 24 26 24 C 26.117 24 26.23 24.017 26.343 24.032 L 26.483999999999998 24.051 C 26.505 24.054 26.525 24.055 26.546 24.055 C 26.791999999999998 24.055 27.008 23.87 27.041 23.618 C 27.232 22.125 28.504 21 30 21 C 30.885 21 31.723 21.401 32.301 22.1 C 32.399 22.218 32.542 22.282 32.687000000000005 22.282 C 32.76500000000001 22.282 32.843 22.264 32.915000000000006 22.226 C 33.12400000000001 22.119 33.229000000000006 21.88 33.169000000000004 21.653 C 33.054 21.218 33 20.852 33 20.5 C 33 18.019 35.019 16 37.5 16 C 39.881 16 41.847 17.872 41.974000000000004 20.262999999999998 C 41.98500000000001 20.470999999999997 42.124 20.65 42.323 20.712999999999997 C 42.373 20.728999999999996 42.424 20.737 42.475 20.737 C 42.625 20.737 42.771 20.668 42.867000000000004 20.544999999999998 C 43.638 19.563 44.779 19 46 19 C 48.206 19 50 20.794 50 23 C 50 23.117 49.983 23.23 49.968 23.343 L 49.949000000000005 23.483999999999998 C 49.93300000000001 23.618 49.971000000000004 23.752 50.05500000000001 23.857 C 50.13900000000001 23.962 50.26200000000001 24.029 50.39500000000001 24.041999999999998 C 52.451 24.247 54 25.949 54 28 C 54 30.206 52.206 32 50 32 L 43.875 32 C 43.599 32 43.375 32.224 43.375 32.5 C 43.375 32.776 43.599 33 43.875 33 L 50 33 C 52.757 33 55 30.757 55 28 C 55 25.603 53.311 23.587 50.997 23.123 C 50.999 23.082 51 23.041 51 23 C 51 20.243 48.757 18 46 18 C 44.824 18 43.707 18.416 42.817 19.164 C 42.219 16.76 40.055 15 37.5 15 L 37.5 15 z" stroke-linecap="round" />
</g>
		<g transform="matrix(1 0 0 1 -18.49 -24.5)"  >
<path style="stroke: none; stroke-width: 1; stroke-dasharray: none; stroke-linecap: butt; stroke-dashoffset: 0; stroke-linejoin: miter; stroke-miterlimit: 4; fill: rgb(71,43,41); fill-rule: nonzero; opacity: 1;" vector-effect="non-scaling-stroke"  transform=" translate(-31.51, -25.5)" d="M 36 22 C 34.597 22 33.391 22.999 33.087 24.341 C 32.72 24.119 32.301 24 31.875 24 C 30.673000000000002 24 29.677 24.897 29.522 26.068 C 29.319 26.022 29.126 26 28.937 26 C 27.408 26 26.126 27.2 26.019000000000002 28.732 C 26.01 28.87 26.114 28.99 26.251 29 C 26.257 29 26.263 29 26.269000000000002 29 C 26.399 29 26.509 28.899 26.518 28.768 C 26.607 27.497 27.669 26.5 28.937 26.5 C 29.166 26.5 29.407 26.542 29.675 26.627 C 29.697 26.634 29.720000000000002 26.637 29.742 26.637 C 29.797 26.637 29.852 26.617 29.898 26.583000000000002 C 29.962 26.537 30 26.455 30 26.375 C 30 25.341 30.841 24.5 31.875 24.5 C 32.322 24.5 32.76 24.668 33.106 24.973 C 33.153 25.014 33.212 25.035999999999998 33.271 25.035999999999998 C 33.303 25.035999999999998 33.334 25.029999999999998 33.364000000000004 25.017 C 33.452000000000005 24.982 33.51200000000001 24.9 33.519000000000005 24.805 C 33.623 23.512 34.712 22.5 36 22.5 C 36.208 22.5 36.425 22.534 36.682 22.607 C 36.705000000000005 22.614 36.729 22.617 36.752 22.617 C 36.861000000000004 22.617 36.959 22.544 36.991 22.435000000000002 C 37.028999999999996 22.302000000000003 36.952 22.164 36.819 22.126 C 36.517 22.04 36.256 22 36 22 L 36 22 z" stroke-linecap="round" />
</g>
		<g transform="matrix(1 0 0 1 -1.25 -25.25)"  >
<path style="stroke: none; stroke-width: 1; stroke-dasharray: none; stroke-linecap: butt; stroke-dashoffset: 0; stroke-linejoin: miter; stroke-miterlimit: 4; fill: rgb(71,43,41); fill-rule: nonzero; opacity: 1;" vector-effect="non-scaling-stroke"  transform=" translate(-48.75, -24.75)" d="M 49.883 23.5 C 48.557 23.5 47.375 24.397 47.009 25.682 C 46.971000000000004 25.814999999999998 47.048 25.953 47.181 25.991 C 47.205 25.997 47.228 26 47.25 26 C 47.359 26 47.459 25.928 47.49 25.818 C 47.795 24.748 48.779 24 49.883 24 C 50 24 50.113 24.014 50.225 24.029 C 50.237 24.031 50.248000000000005 24.032 50.26 24.032 C 50.381 24.032 50.489 23.94 50.506 23.815 C 50.525 23.678 50.429 23.552 50.292 23.534000000000002 C 50.158 23.516 50.022 23.5 49.883 23.5 L 49.883 23.5 z" stroke-linecap="round" />
</g>
		<g transform="matrix(1 0 0 1 1 1)"  >
<path style="stroke: none; stroke-width: 1; stroke-dasharray: none; stroke-linecap: butt; stroke-dashoffset: 0; stroke-linejoin: miter; stroke-miterlimit: 4; fill: rgb(50,49,199); fill-rule: nonzero; opacity: 1;" vector-effect="non-scaling-stroke"  transform=" translate(-51, -51)" d="M 72.3 35.7 L 72.3 66.30000000000001 C 72.3 69.61000000000001 69.61 72.30000000000001 66.3 72.30000000000001 L 35.7 72.30000000000001 C 32.39 72.30000000000001 29.700000000000003 69.61000000000001 29.700000000000003 66.30000000000001 L 29.700000000000003 35.7 C 29.700000000000003 32.39 32.39 29.700000000000003 35.7 29.700000000000003 L 66.30000000000001 29.700000000000003 C 69.61 29.7 72.3 32.39 72.3 35.7 z" stroke-linecap="round" />
</g>
		<g transform="matrix(1 0 0 1 1 1)"  >
<path style="stroke: none; stroke-width: 1; stroke-dasharray: none; stroke-linecap: butt; stroke-dashoffset: 0; stroke-linejoin: miter; stroke-miterlimit: 4; fill: rgb(114,40,173); fill-rule: nonzero; opacity: 1;" vector-effect="non-scaling-stroke"  transform=" translate(-51, -51)" d="M 72.3 47.25 L 72.3 66.3 C 72.3 69.61 69.61 72.3 66.3 72.3 L 35.7 72.3 C 32.39 72.3 29.700000000000003 69.61 29.700000000000003 66.3 L 29.700000000000003 35.7 C 29.700000000000003 32.39 32.39 29.700000000000003 35.7 29.700000000000003 L 54.75 29.700000000000003 C 61.99 33.95 68.05 40.01 72.3 47.25 z" stroke-linecap="round" />
</g>
		<g transform="matrix(1 0 0 1 0.33 1.67)"  >
<path style="stroke: none; stroke-width: 1; stroke-dasharray: none; stroke-linecap: butt; stroke-dashoffset: 0; stroke-linejoin: miter; stroke-miterlimit: 4; fill: rgb(177,30,147); fill-rule: nonzero; opacity: 1;" vector-effect="non-scaling-stroke"  transform=" translate(-50.33, -51.67)" d="M 70.96 70.08 C 69.86 71.42999999999999 68.17999999999999 72.3 66.3 72.3 L 35.7 72.3 C 32.39 72.3 29.700000000000003 69.61 29.700000000000003 66.3 L 29.700000000000003 35.7 C 29.700000000000003 33.82 30.570000000000004 32.14 31.92 31.040000000000003 C 53.03 32.02 69.98 48.97 70.96 70.08 z" stroke-linecap="round" />
</g>
		<g transform="matrix(1 0 0 1 -3.65 5.65)"  >
<path style="stroke: none; stroke-width: 1; stroke-dasharray: none; stroke-linecap: butt; stroke-dashoffset: 0; stroke-linejoin: miter; stroke-miterlimit: 4; fill: rgb(219,26,88); fill-rule: nonzero; opacity: 1;" vector-effect="non-scaling-stroke"  transform=" translate(-46.35, -55.65)" d="M 63 72 L 63 72.3 L 35.7 72.3 C 32.39 72.3 29.700000000000003 69.61 29.700000000000003 66.3 L 29.700000000000003 39 L 30 39 C 48.23 39 63 53.77 63 72 z" stroke-linecap="round" />
</g>
		<g transform="matrix(1 0 0 1 -7.65 9.65)"  >
<path style="stroke: none; stroke-width: 1; stroke-dasharray: none; stroke-linecap: butt; stroke-dashoffset: 0; stroke-linejoin: miter; stroke-miterlimit: 4; fill: rgb(228,39,62); fill-rule: nonzero; opacity: 1;" vector-effect="non-scaling-stroke"  transform=" translate(-42.35, -59.65)" d="M 55 72 C 55 72.1 55 72.2 54.99 72.3 L 35.7 72.3 C 32.39 72.3 29.700000000000003 69.61 29.700000000000003 66.3 L 29.700000000000003 47.01 C 29.8 47 29.9 47 30 47 C 43.81 47 55 58.19 55 72 z" stroke-linecap="round" />
</g>
		<g transform="matrix(1 0 0 1 -11.15 13.15)"  >
<path style="stroke: none; stroke-width: 1; stroke-dasharray: none; stroke-linecap: butt; stroke-dashoffset: 0; stroke-linejoin: miter; stroke-miterlimit: 4; fill: rgb(244,124,34); fill-rule: nonzero; opacity: 1;" vector-effect="non-scaling-stroke"  transform=" translate(-38.85, -63.15)" d="M 48 72 C 48 72.1 48 72.2 47.99 72.3 L 35.7 72.3 C 32.39 72.3 29.700000000000003 69.61 29.700000000000003 66.3 L 29.700000000000003 54.01 C 29.8 54 29.9 54 30 54 C 39.94 54 48 62.06 48 72 z" stroke-linecap="round" />
</g>
		<g transform="matrix(1 0 0 1 -14.15 16.15)"  >
<path style="stroke: none; stroke-width: 1; stroke-dasharray: none; stroke-linecap: butt; stroke-dashoffset: 0; stroke-linejoin: miter; stroke-miterlimit: 4; fill: rgb(239,153,34); fill-rule: nonzero; opacity: 1;" vector-effect="non-scaling-stroke"  transform=" translate(-35.85, -66.15)" d="M 42 72 C 42 72.1 42 72.2 41.99 72.3 L 35.7 72.3 C 32.39 72.3 29.700000000000003 69.61 29.700000000000003 66.3 L 29.700000000000003 60.01 C 29.8 60 29.9 60 30 60 C 36.63 60 42 65.37 42 72 z" stroke-linecap="round" />
</g>
		<g transform="matrix(1 0 0 1 1 1)"  >
<path style="stroke: none; stroke-width: 1; stroke-dasharray: none; stroke-linecap: butt; stroke-dashoffset: 0; stroke-linejoin: miter; stroke-miterlimit: 4; fill: rgb(71,43,41); fill-rule: nonzero; opacity: 1;" vector-effect="non-scaling-stroke"  transform=" translate(-51, -51)" d="M 66.3 73 L 35.7 73 C 32.006 73 29.000000000000004 69.994 29.000000000000004 66.3 L 29.000000000000004 35.7 C 29.000000000000004 32.006 32.006 29.000000000000004 35.7 29.000000000000004 L 66.30000000000001 29.000000000000004 C 69.99400000000001 29.000000000000004 73.00000000000001 32.006 73.00000000000001 35.7 L 73.00000000000001 66.30000000000001 C 73 69.994 69.994 73 66.3 73 z M 35.7 30.4 C 32.777 30.4 30.400000000000002 32.777 30.400000000000002 35.699999999999996 L 30.400000000000002 66.3 C 30.400000000000002 69.222 32.777 71.6 35.7 71.6 L 66.30000000000001 71.6 C 69.22300000000001 71.6 71.60000000000001 69.223 71.60000000000001 66.3 L 71.60000000000001 35.7 C 71.60000000000001 32.778000000000006 69.22300000000001 30.400000000000002 66.30000000000001 30.400000000000002 L 35.7 30.400000000000002 z" stroke-linecap="round" />
</g>
		<g transform="matrix(1 0 0 1 0.99 1)"  >
<path style="stroke: none; stroke-width: 1; stroke-dasharray: none; stroke-linecap: butt; stroke-dashoffset: 0; stroke-linejoin: miter; stroke-miterlimit: 4; fill: rgb(255,255,255); fill-rule: nonzero; opacity: 1;" vector-effect="non-scaling-stroke"  transform=" translate(-50.99, -51)" d="M 50.99 66.5 C 47.007000000000005 66.5 45.524 66.489 44.010000000000005 66.42 C 42.617000000000004 66.358 41.531000000000006 66.148 40.49 65.74 C 39.476 65.34899999999999 38.684000000000005 64.83399999999999 37.92 64.07 C 37.161 63.31099999999999 36.647 62.517999999999994 36.25 61.49999999999999 C 35.854 60.486999999999995 35.644 59.401999999999994 35.57 57.97999999999999 C 35.501 56.45299999999999 35.49 54.97199999999999 35.49 50.999999999999986 C 35.49 47.03499999999998 35.501000000000005 45.55699999999999 35.57 44.02999999999999 C 35.632 42.636999999999986 35.841 41.55099999999999 36.25 40.509999999999984 C 36.646 39.48299999999998 37.161 38.68999999999998 37.92 37.93999999999998 C 38.679 37.18199999999998 39.472 36.66699999999998 40.49 36.26999999999998 C 41.531 35.862999999999985 42.617000000000004 35.652999999999984 44.010000000000005 35.58999999999998 C 45.57600000000001 35.518999999999984 47.077000000000005 35.49999999999998 50.99000000000001 35.49999999999998 C 54.90500000000001 35.49999999999998 56.403000000000006 35.51899999999998 57.96000000000001 35.58999999999998 C 59.35300000000001 35.652999999999984 60.43900000000001 35.86199999999998 61.48100000000001 36.26999999999998 C 62.50800000000001 36.66599999999998 63.30000000000001 37.18099999999998 64.05000000000001 37.93999999999998 C 64.802 38.682999999999986 65.32000000000001 39.47499999999998 65.73100000000001 40.509999999999984 C 66.13000000000001 41.56199999999998 66.337 42.64899999999999 66.40100000000001 44.030999999999985 C 66.471 45.61199999999999 66.49100000000001 47.11099999999998 66.49100000000001 51.00099999999998 C 66.49100000000001 54.89899999999999 66.47100000000002 56.39899999999999 66.40100000000001 57.98099999999998 C 66.33800000000001 59.36299999999998 66.13100000000001 60.448999999999984 65.73100000000001 61.50099999999998 C 65.32100000000001 62.52599999999998 64.802 63.319999999999986 64.05000000000001 64.07099999999998 C 63.302000000000014 64.82799999999999 62.51300000000001 65.34299999999999 61.49000000000001 65.74099999999999 C 60.43500000000001 66.14899999999999 59.34600000000001 66.35799999999999 57.96000000000001 66.42099999999999 C 56.445 66.489 54.965 66.5 50.99 66.5 z M 49.68 38.5 C 46.929 38.5 45.418 38.521 44.107 38.579 C 42.772999999999996 38.641 42.038 38.864 41.545 39.051 C 40.936 39.29 40.499 39.575 40.037 40.038000000000004 C 39.576 40.498000000000005 39.291 40.93300000000001 39.055 41.537000000000006 C 38.867 42.031000000000006 38.642 42.767 38.579 44.10600000000001 C 38.511 45.61100000000001 38.5 46.99900000000001 38.5 50.99000000000001 C 38.5 54.98900000000001 38.511 56.37900000000001 38.579 57.88300000000001 C 38.641 59.21200000000001 38.865 59.94700000000001 39.053 60.43900000000001 C 39.291999999999994 61.06000000000001 39.567 61.482000000000006 40.032 61.94700000000001 C 40.5 62.40600000000001 40.937999999999995 62.69000000000001 41.546 62.92900000000001 C 42.022 63.11500000000001 42.741 63.33700000000001 44.106 63.40100000000001 C 45.665 63.47100000000001 47.144 63.49000000000001 50.992000000000004 63.49000000000001 C 54.847 63.49000000000001 56.32900000000001 63.470000000000006 57.885000000000005 63.40100000000001 C 59.282000000000004 63.33700000000001 60.019000000000005 63.10000000000001 60.45100000000001 62.927000000000014 C 61.050000000000004 62.69600000000001 61.48400000000001 62.41500000000001 61.94800000000001 61.960000000000015 C 62.40800000000001 61.491000000000014 62.69400000000001 61.052000000000014 62.937000000000005 60.44400000000002 C 63.12200000000001 59.96100000000002 63.339000000000006 59.23600000000002 63.403000000000006 57.88500000000002 C 63.47200000000001 56.31300000000002 63.492000000000004 54.83100000000002 63.492000000000004 50.99000000000002 C 63.492000000000004 47.15600000000002 63.472 45.67700000000002 63.403000000000006 44.10600000000002 C 63.34 42.757000000000026 63.12200000000001 42.032000000000025 62.93900000000001 41.55100000000002 C 62.70300000000001 40.93900000000002 62.419000000000004 40.502000000000024 61.96000000000001 40.04300000000002 C 61.467000000000006 39.55900000000002 61.06700000000001 39.30100000000002 60.43000000000001 39.05800000000002 C 59.96900000000001 38.874000000000024 59.260000000000005 38.65400000000002 57.88600000000001 38.58900000000002 C 56.35200000000001 38.51900000000002 54.86900000000001 38.50000000000002 50.991000000000014 38.50000000000002 L 49.68 38.50000000000002 z" stroke-linecap="round" />
</g>
		<g transform="matrix(1 0 0 1 0.99 1)"  >
<path style="stroke: none; stroke-width: 1; stroke-dasharray: none; stroke-linecap: butt; stroke-dashoffset: 0; stroke-linejoin: miter; stroke-miterlimit: 4; fill: rgb(71,43,41); fill-rule: nonzero; opacity: 1;" vector-effect="non-scaling-stroke"  transform=" translate(-50.99, -51)" d="M 50.99 35.8 C 54.899 35.8 56.395 35.818999999999996 57.946000000000005 35.89 C 59.30500000000001 35.951 60.361000000000004 36.155 61.374 36.55 C 62.359 36.93 63.118 37.422999999999995 63.841 38.154999999999994 C 64.56 38.864999999999995 65.057 39.62499999999999 65.449 40.614 C 65.838 41.638 66.039 42.695 66.101 44.043 C 66.17099999999999 45.619 66.19 47.115 66.19 51 C 66.19 54.893 66.17099999999999 56.39 66.101 57.966 C 66.039 59.316 65.838 60.373000000000005 65.453 61.386 C 65.057 62.375 64.559 63.137 63.836000000000006 63.86 C 63.120000000000005 64.585 62.36300000000001 65.079 61.383 65.46 C 60.36 65.85499999999999 59.300000000000004 66.059 57.947 66.11999999999999 C 56.438 66.189 54.961000000000006 66.19999999999999 50.991 66.19999999999999 C 47.013 66.19999999999999 45.533 66.189 44.024 66.11999999999999 C 42.665 66.05899999999998 41.609 65.856 40.598 65.46 C 39.627 65.085 38.867 64.591 38.132999999999996 63.858 C 37.404999999999994 63.129 36.910999999999994 62.369 36.529999999999994 61.39 C 36.145999999999994 60.409 35.94299999999999 59.352000000000004 35.870999999999995 57.967 C 35.80199999999999 56.445 35.791 54.966 35.791 50.998999999999995 C 35.791 47.03999999999999 35.802 45.562999999999995 35.870999999999995 44.041999999999994 C 35.931999999999995 42.68299999999999 36.135 41.626999999999995 36.53099999999999 40.614999999999995 C 36.910999999999994 39.629999999999995 37.40399999999999 38.87 38.13399999999999 38.14999999999999 C 38.86099999999999 37.422999999999995 39.62199999999999 36.92899999999999 40.60099999999999 36.547999999999995 C 41.60999999999999 36.153999999999996 42.66599999999999 35.949999999999996 44.02499999999999 35.888 C 45.585 35.819 47.082 35.8 50.99 35.8 M 50.99 63.79 C 54.851 63.79 56.335 63.771 57.897000000000006 63.701 C 59.34 63.634 60.108000000000004 63.387 60.55500000000001 63.208 C 61.196000000000005 62.96 61.660000000000004 62.661 62.16400000000001 62.167 C 62.65100000000001 61.67 62.955000000000005 61.203 63.217000000000006 60.547000000000004 C 63.40800000000001 60.04600000000001 63.636 59.292 63.7 57.898 C 63.77 56.322 63.789 54.837 63.789 50.99 C 63.789 47.151 63.77 45.668 63.7 44.092 C 63.635000000000005 42.701 63.408 41.946999999999996 63.217000000000006 41.442 C 62.968 40.797 62.65500000000001 40.316 62.168000000000006 39.828 C 61.650000000000006 39.319 61.208000000000006 39.034000000000006 60.543000000000006 38.78 C 60.05700000000001 38.586 59.318000000000005 38.355000000000004 57.898 38.288000000000004 C 56.359 38.218 54.874 38.199000000000005 50.991 38.199000000000005 L 49.68 38.199000000000005 C 46.924 38.199000000000005 45.41 38.220000000000006 44.092 38.278000000000006 C 42.716 38.342000000000006 41.951 38.574000000000005 41.434 38.77100000000001 C 40.793 39.022000000000006 40.312 39.33700000000001 39.824999999999996 39.824000000000005 C 39.337999999999994 40.31 39.023999999999994 40.78900000000001 38.773999999999994 41.429 C 38.57699999999999 41.942 38.342999999999996 42.709 38.278999999999996 44.091 C 38.209999999999994 45.602000000000004 38.199 46.992000000000004 38.199 50.989000000000004 C 38.199 54.993 38.208999999999996 56.386 38.278999999999996 57.896 C 38.342999999999996 59.268 38.57599999999999 60.032000000000004 38.772 60.546 C 39.024 61.2 39.327999999999996 61.667 39.821999999999996 62.161 C 40.312999999999995 62.643 40.794999999999995 62.956 41.434999999999995 63.207 C 41.931 63.401 42.681999999999995 63.633 44.090999999999994 63.699 C 45.655 63.771 47.138 63.79 50.99 63.79 M 50.99 35.3 C 46.999 35.3 45.536 35.321 44.001000000000005 35.39 C 42.584 35.454 41.479000000000006 35.669000000000004 40.418000000000006 36.083 C 39.37100000000001 36.491 38.55800000000001 37.019999999999996 37.779 37.797 C 36.999 38.568 36.469 39.382 36.063 40.436 C 35.647000000000006 41.498 35.433 42.604 35.370000000000005 44.02 C 35.301 45.557 35.290000000000006 47.039 35.290000000000006 50.999 C 35.290000000000006 54.968 35.30100000000001 56.451 35.370000000000005 57.989000000000004 C 35.44500000000001 59.43300000000001 35.659000000000006 60.538000000000004 36.063 61.572 C 36.47 62.617000000000004 37 63.431000000000004 37.778000000000006 64.211 C 38.56400000000001 64.997 39.379000000000005 65.525 40.41700000000001 65.926 C 41.479000000000006 66.342 42.58500000000001 66.556 44.00100000000001 66.619 C 45.53800000000001 66.689 47.021000000000015 66.7 50.99000000000001 66.7 C 54.95000000000001 66.7 56.43100000000001 66.69 57.96900000000001 66.619 C 59.379000000000005 66.556 60.48800000000001 66.342 61.56300000000001 65.926 C 62.61400000000001 65.517 63.42400000000001 64.988 64.19200000000001 64.211 C 64.96300000000001 63.44 65.495 62.626999999999995 65.918 61.571 C 66.32700000000001 60.495999999999995 66.537 59.391 66.602 57.988 C 66.67 56.452 66.69200000000001 54.988 66.69200000000001 50.999 C 66.69200000000001 47.02 66.671 45.556000000000004 66.602 44.02 C 66.53800000000001 42.618 66.328 41.514 65.917 40.435 C 65.496 39.373000000000005 64.964 38.559000000000005 64.193 37.798 C 63.422 37.018 62.608999999999995 36.489000000000004 61.553999999999995 36.082 C 60.49099999999999 35.666000000000004 59.385 35.453 57.968999999999994 35.389 C 56.443 35.321 54.982 35.3 50.99 35.3 L 50.99 35.3 z M 50.99 63.29 C 47.148 63.29 45.67 63.271 44.114000000000004 63.201 C 42.778000000000006 63.139 42.078 62.923 41.618 62.743 C 41.036 62.514 40.618 62.243 40.173 61.805 C 39.732 61.364 39.468 60.959 39.239000000000004 60.367 C 39.057 59.891 38.84 59.172 38.779 57.873 C 38.711000000000006 56.381 38.7 54.992 38.7 50.989 C 38.7 46.994 38.711000000000006 45.607 38.779 44.114 C 38.84 42.806 39.057 42.087999999999994 39.24100000000001 41.608 C 39.46600000000001 41.034 39.73800000000001 40.617999999999995 40.17900000000001 40.178 C 40.61900000000001 39.736999999999995 41.03500000000001 39.464999999999996 41.61700000000001 39.236999999999995 C 42.09000000000001 39.056999999999995 42.80900000000001 38.837999999999994 44.116000000000014 38.77799999999999 C 45.42 38.722 46.93 38.7 49.68 38.7 L 50.991 38.7 C 54.867 38.7 56.346000000000004 38.719 57.876 38.788000000000004 C 59.221999999999994 38.851000000000006 59.909 39.065000000000005 60.358 39.245000000000005 C 60.97 39.479000000000006 61.348 39.723000000000006 61.818 40.185 C 62.254 40.621 62.525999999999996 41.039 62.751999999999995 41.623000000000005 C 62.928 42.086000000000006 63.141 42.793000000000006 63.202 44.11600000000001 C 63.271 45.67300000000001 63.291 47.15200000000001 63.291 50.99100000000001 C 63.291 54.83800000000001 63.270999999999994 56.31900000000001 63.202 57.87700000000001 C 63.14 59.19900000000001 62.928999999999995 59.90400000000001 62.751 60.37100000000001 C 62.516999999999996 60.95700000000001 62.25 61.36700000000001 61.808 61.81900000000001 C 61.363 62.25600000000001 60.957 62.51900000000001 60.376 62.74300000000001 C 59.952 62.912000000000006 59.245999999999995 63.13900000000001 57.875 63.20200000000001 C 56.32 63.271 54.84 63.29 50.99 63.29 L 50.99 63.29 z" stroke-linecap="round" />
</g>
		<g transform="matrix(1 0 0 1 9.5 -7.5)"  >
<path style="stroke: none; stroke-width: 1; stroke-dasharray: none; stroke-linecap: butt; stroke-dashoffset: 0; stroke-linejoin: miter; stroke-miterlimit: 4; fill: rgb(255,255,255); fill-rule: nonzero; opacity: 1;" vector-effect="non-scaling-stroke"  transform=" translate(-59.5, -42.5)" d="M 59.5 40.751 C 58.534 40.751 57.75 41.534 57.75 42.5 C 57.75 43.466 58.534 44.25 59.5 44.25 C 60.466 44.25 61.25 43.466 61.25 42.5 C 61.25 41.534 60.466 40.75 59.5 40.751 L 59.5 40.751 z" stroke-linecap="round" />
</g>
		<g transform="matrix(1 0 0 1 9.5 -7.5)"  >
<path style="stroke: none; stroke-width: 1; stroke-dasharray: none; stroke-linecap: butt; stroke-dashoffset: 0; stroke-linejoin: miter; stroke-miterlimit: 4; fill: rgb(71,43,41); fill-rule: nonzero; opacity: 1;" vector-effect="non-scaling-stroke"  transform=" translate(-59.5, -42.5)" d="M 59.5 41 C 60.328 41 61 41.672 61 42.5 C 61 43.328 60.328 44 59.5 44 C 58.672 44 58 43.328 58 42.5 C 58 41.672 58.672 41.001 59.5 41 L 59.5 41 M 59.5 40.5 L 59.5 40.5 C 58.397 40.501 57.5 41.398 57.5 42.5 C 57.5 43.603 58.397 44.5 59.5 44.5 C 60.603 44.5 61.5 43.603 61.5 42.5 C 61.5 41.397 60.603 40.5 59.5 40.5 L 59.5 40.5 z" stroke-linecap="round" />
</g>
		<g transform="matrix(1 0 0 1 0.99 1)"  >
<path style="stroke: none; stroke-width: 1; stroke-dasharray: none; stroke-linecap: butt; stroke-dashoffset: 0; stroke-linejoin: miter; stroke-miterlimit: 4; fill: rgb(255,255,255); fill-rule: nonzero; opacity: 1;" vector-effect="non-scaling-stroke"  transform=" translate(-50.99, -51)" d="M 50.988 42.504 C 46.293 42.504 42.487 46.309999999999995 42.487 51.004999999999995 C 42.487 55.699999999999996 46.293 59.504 50.988 59.504 C 55.683 59.504 59.487 55.699 59.487 51.004999999999995 C 59.487 46.31099999999999 55.682 42.504 50.988 42.504 L 50.988 42.504 z M 50.988 45.505 C 54.025 45.505 56.488 47.967000000000006 56.488 51.005 C 56.488 54.042 54.025 56.505 50.988 56.505 C 47.95 56.505 45.488 54.042 45.488 51.005 C 45.488 47.967 47.95 45.505 50.988 45.505 z" stroke-linecap="round" />
</g>
		<g transform="matrix(1 0 0 1 0.99 1)"  >
<path style="stroke: none; stroke-width: 1; stroke-dasharray: none; stroke-linecap: butt; stroke-dashoffset: 0; stroke-linejoin: miter; stroke-miterlimit: 4; fill: rgb(71,43,41); fill-rule: nonzero; opacity: 1;" vector-effect="non-scaling-stroke"  transform=" translate(-50.99, -51)" d="M 50.988 59.754 C 46.163 59.754 42.237 55.829 42.237 51.004 C 42.237 46.178999999999995 46.163000000000004 42.254 50.988 42.254 C 55.812 42.254 59.737 46.178999999999995 59.737 51.004 C 59.737 55.829 55.812 59.754 50.988 59.754 z M 50.988 42.754 C 46.438 42.754 42.737 46.455 42.737 51.004 C 42.737 55.553 46.438 59.254 50.988 59.254 C 55.537 59.254 59.237 55.553 59.237 51.004 C 59.237 46.455 55.537 42.754 50.988 42.754 z M 50.988 56.754 C 47.817 56.754 45.238 54.174 45.238 51.004 C 45.238 47.833999999999996 47.817 45.254 50.988 45.254 C 54.159 45.254 56.738 47.833999999999996 56.738 51.004 C 56.738 54.174 54.159 56.754 50.988 56.754 z M 50.988 45.754 C 48.092999999999996 45.754 45.738 48.108999999999995 45.738 51.004 C 45.738 53.899 48.092999999999996 56.254 50.988 56.254 C 53.883 56.254 56.238 53.899 56.238 51.004 C 56.238 48.108999999999995 53.883 45.754 50.988 45.754 z" stroke-linecap="round" />
</g>
		<g transform="matrix(1 0 0 1 25 20.25)"  >
<path style="stroke: none; stroke-width: 1; stroke-dasharray: none; stroke-linecap: butt; stroke-dashoffset: 0; stroke-linejoin: miter; stroke-miterlimit: 4; fill: rgb(253,252,239); fill-rule: nonzero; opacity: 1;" vector-effect="non-scaling-stroke"  transform=" translate(-75, -70.25)" d="M 80.5 76.5 C 80.5 76.5 82.067 76.5 84 76.5 C 85.933 76.5 87.5 74.933 87.5 73 C 87.5 71.219 86.165 69.766 84.445 69.545 C 84.473 69.366 84.5 69.187 84.5 69 C 84.5 67.067 82.933 65.5 81 65.5 C 79.968 65.5 79.05 65.955 78.41 66.665 C 78.026 64.857 76.423 63.50000000000001 74.5 63.50000000000001 C 72.291 63.50000000000001 70.5 65.29100000000001 70.5 67.5 C 70.5 67.691 70.53 67.874 70.556 68.058 C 70.128 67.714 69.592 67.5 69 67.5 C 67.772 67.5 66.755 68.387 66.545 69.555 C 66.366 69.527 66.187 69.5 66 69.5 C 64.067 69.5 62.5 71.067 62.5 73 C 62.5 74.933 64.067 76.5 66 76.5 C 67.933 76.5 73.5 76.5 73.5 76.5 L 73.5 77 L 80.5 77 L 80.5 76.5 z" stroke-linecap="round" />
</g>
		<g transform="matrix(1 0 0 1 33.82 20.77)"  >
<path style="stroke: none; stroke-width: 1; stroke-dasharray: none; stroke-linecap: butt; stroke-dashoffset: 0; stroke-linejoin: miter; stroke-miterlimit: 4; fill: rgb(71,43,41); fill-rule: nonzero; opacity: 1;" vector-effect="non-scaling-stroke"  transform=" translate(-83.82, -70.77)" d="M 82.25 72 C 82.112 72 82 71.888 82 71.75 C 82 70.527 82.995 69.532 84.218 69.532 C 84.25200000000001 69.541 84.955 69.53099999999999 85.462 69.66799999999999 C 85.595 69.704 85.674 69.841 85.638 69.97399999999999 C 85.602 70.10799999999999 85.465 70.18699999999998 85.33200000000001 70.14999999999999 C 84.888 70.02999999999999 84.23200000000001 70.02999999999999 84.21900000000001 70.032 C 83.27100000000002 70.032 82.50000000000001 70.803 82.50000000000001 71.75 C 82.5 71.888 82.388 72 82.25 72 z" stroke-linecap="round" />
</g>
		<g transform="matrix(1 0 0 1 25.5 26.5)"  >
<circle style="stroke: none; stroke-width: 1; stroke-dasharray: none; stroke-linecap: butt; stroke-dashoffset: 0; stroke-linejoin: miter; stroke-miterlimit: 4; fill: rgb(71,43,41); fill-rule: nonzero; opacity: 1;" vector-effect="non-scaling-stroke"  cx="0" cy="0" r="0.5" />
</g>
		<g transform="matrix(1 0 0 1 25 20)"  >
<path style="stroke: none; stroke-width: 1; stroke-dasharray: none; stroke-linecap: butt; stroke-dashoffset: 0; stroke-linejoin: miter; stroke-miterlimit: 4; fill: rgb(71,43,41); fill-rule: nonzero; opacity: 1;" vector-effect="non-scaling-stroke"  transform=" translate(-75, -70)" d="M 84 77 L 80.5 77 C 80.224 77 80 76.776 80 76.5 C 80 76.224 80.224 76 80.5 76 L 84 76 C 85.654 76 87 74.654 87 73 C 87 71.504 85.875 70.232 84.382 70.041 C 84.248 70.023 84.12700000000001 69.953 84.046 69.845 C 83.965 69.737 83.93100000000001 69.601 83.95200000000001 69.468 C 83.975 69.314 84 69.16 84 69 C 84 67.346 82.654 66 81 66 C 80.15 66 79.362 66.355 78.781 67 C 78.656 67.139 78.46000000000001 67.198 78.281 67.148 C 78.099 67.09899999999999 77.96000000000001 66.953 77.921 66.76899999999999 C 77.58 65.165 76.141 64 74.5 64 C 72.57 64 71 65.57 71 67.5 C 71 67.643 71.021 67.78 71.041 67.918 C 71.07 68.12100000000001 70.978 68.35600000000001 70.79899999999999 68.45800000000001 C 70.61999999999999 68.56000000000002 70.40299999999999 68.57600000000001 70.243 68.44800000000001 C 69.878 68.155 69.449 68 69 68 C 68.034 68 67.208 68.691 67.037 69.644 C 66.989 69.911 66.741 70.09 66.468 70.049 C 66.314 70.025 66.16 70 66 70 C 64.346 70 63 71.346 63 73 C 63 74.654 64.346 76 66 76 L 73.5 76 C 73.776 76 74 76.224 74 76.5 C 74 76.776 73.776 77 73.5 77 L 66 77 C 63.794 77 62 75.206 62 73 C 62 70.794 63.794 69 66 69 C 66.059 69 66.116 69.002 66.174 69.006 C 66.588 67.82 67.711 67 69 67 C 69.349 67 69.689 67.061 70.011 67.18 C 70.176 64.847 72.126 63 74.5 63 C 76.331 63 77.966 64.127 78.653 65.774 C 79.333 65.276 80.155 65 81 65 C 83.206 65 85 66.794 85 69 C 85 69.048 84.999 69.095 84.996 69.142 C 86.739 69.59 88 71.169 88 73 C 88 75.206 86.206 77 84 77 z" stroke-linecap="round" />
</g>
		<g transform="matrix(1 0 0 1 28 26.5)"  >
<path style="stroke: none; stroke-width: 1; stroke-dasharray: none; stroke-linecap: butt; stroke-dashoffset: 0; stroke-linejoin: miter; stroke-miterlimit: 4; fill: rgb(71,43,41); fill-rule: nonzero; opacity: 1;" vector-effect="non-scaling-stroke"  transform=" translate(-78, -76.5)" d="M 78.5 76 C 78.341 76 77.659 76 77.5 76 C 77.224 76 77 76.224 77 76.5 C 77 76.776 77.224 77 77.5 77 C 77.659 77 78.341 77 78.5 77 C 78.776 77 79 76.776 79 76.5 C 79 76.224 78.776 76 78.5 76 z" stroke-linecap="round" />
</g>
</g>
</g>
</svg>