<?xml version="1.0" encoding="UTF-8" standalone="no" ?>
<!DOCTYPE svg PUBLIC "-//W3C//DTD SVG 1.1//EN" "http://www.w3.org/Graphics/SVG/1.1/DTD/svg11.dtd">
<svg xmlns="http://www.w3.org/2000/svg" xmlns:xlink="http://www.w3.org/1999/xlink" version="1.1" width="1080" height="1080" viewBox="0 0 1080 1080" xml:space="preserve">
<desc>Created with Fabric.js 5.2.4</desc>
<defs>
</defs>
<g transform="matrix(1 0 0 1 540 540)" id="3fd28511-902a-41a5-846f-37e6af5333e0"  >
<rect style="stroke: none; stroke-width: 1; stroke-dasharray: none; stroke-linecap: butt; stroke-dashoffset: 0; stroke-linejoin: miter; stroke-miterlimit: 4; fill: rgb(255,255,255); fill-rule: nonzero; opacity: 1; visibility: hidden;" vector-effect="non-scaling-stroke"  x="-540" y="-540" rx="0" ry="0" width="1080" height="1080" />
</g>
<g transform="matrix(1 0 0 1 540 540)" id="7c24fbdd-495f-422d-863a-d94b2278e908"  >
</g>
<g transform="matrix(10.8 0 0 10.8 540 540)"  >
<g style=""   >
		<g transform="matrix(1 0 0 1 -0.23 -1.28)"  >
<path style="stroke: none; stroke-width: 1; stroke-dasharray: none; stroke-linecap: butt; stroke-dashoffset: 0; stroke-linejoin: miter; stroke-miterlimit: 4; fill: rgb(200,237,230); fill-rule: nonzero; opacity: 1;" vector-effect="non-scaling-stroke"  transform=" translate(-49.77, -48.72)" d="M 87.234 55.551 C 87.53399999999999 54.935 87.8 54.287 88.03 53.608000000000004 C 90.663 45.83800000000001 86.681 36.53 78.297 34.283 C 77.391 22.9 69.391 15.09 60.356 13.758 C 50.015 12.232999999999999 40.542 18.802 37.39 29.243 C 33.591 27.897 29.889 28.061 26.4 30.099999999999998 C 24.817 30.831999999999997 23.369 31.912 22.07 33.333 C 20.163 35.419 18.923000000000002 38.052 18.418 40.827999999999996 C 17.669999999999998 40.946 16.935 41.06399999999999 16.241999999999997 41.312 C 12.201999999999998 42.760999999999996 9.652999999999997 45.742999999999995 8.953999999999997 50.235 C 8.518999999999997 53.032 9.396999999999997 55.822 9.886999999999997 56.949 C 11.821999999999997 61.403999999999996 16.308999999999997 63.929 20.867999999999995 63.260999999999996 C 21.094999999999995 63.227999999999994 21.424999999999994 63.33 21.619999999999994 63.49399999999999 C 21.860999999999994 70.61399999999999 25.317999999999994 76.91099999999999 30.503999999999994 80.508 C 38.824999999999996 86.28 49.53099999999999 84.502 56.285 76.58699999999999 C 59.178999999999995 79.54699999999998 62.623 80.98499999999999 66.669 80.463 C 70.692 79.94399999999999 73.816 77.72399999999999 76.095 74.11399999999999 C 77.148 74.39699999999999 78.146 74.80499999999999 79.178 74.91799999999999 C 83.22 75.35999999999999 86.475 73.734 88.91 70.118 C 88.993 69.994 89.113 69.899 89.216 69.78999999999999 C 89.564 68.99199999999999 89.91199999999999 68.19399999999999 90.25999999999999 67.39599999999999 C 90.41499999999999 66.18499999999999 90.689 64.97299999999998 90.70299999999999 63.76399999999999 C 90.742 60.508 89.411 57.54 87.234 55.551 z" stroke-linecap="round" />
</g>
		<g transform="matrix(1 0 0 1 4.27 -9)"  >
<path style="stroke: none; stroke-width: 1; stroke-dasharray: none; stroke-linecap: butt; stroke-dashoffset: 0; stroke-linejoin: miter; stroke-miterlimit: 4; fill: rgb(255,255,255); fill-rule: nonzero; opacity: 1;" vector-effect="non-scaling-stroke"  transform=" translate(-54.27, -41)" d="M 26.899 38 L 16.869 38 C 16.593 38 16.369 37.776 16.369 37.5 C 16.369 37.224 16.593 37 16.869 37 L 26.899 37 C 27.175 37 27.399 37.224 27.399 37.5 C 27.399 37.776 27.176 38 26.899 38 z M 30.28 37.5 C 30.28 37.224 30.056 37 29.78 37 L 28.334 37 C 28.058 37 27.834 37.224 27.834 37.5 C 27.834 37.776 28.058 38 28.334 38 L 29.78 38 C 30.057 38 30.28 37.776 30.28 37.5 z M 34.335 37.5 C 34.335 37.224 34.111000000000004 37 33.835 37 L 31.289 37 C 31.013 37 30.789 37.224 30.789 37.5 C 30.789 37.776 31.013 38 31.289 38 L 33.835 38 C 34.112 38 34.335 37.776 34.335 37.5 z M 34.335 39.5 C 34.335 39.224 34.111000000000004 39 33.835 39 L 24.219 39 C 23.943 39 23.719 39.224 23.719 39.5 C 23.719 39.776 23.943 40 24.219 40 L 33.835 40 C 34.112 40 34.335 39.776 34.335 39.5 z M 22.987 39.5 C 22.987 39.224 22.762999999999998 39 22.487 39 L 21.907 39 C 21.631 39 21.407 39.224 21.407 39.5 C 21.407 39.776 21.631 40 21.907 40 L 22.487 40 C 22.763 40 22.987 39.776 22.987 39.5 z M 20.611 39.5 C 20.611 39.224 20.387 39 20.111 39 L 18.654 39 C 18.378 39 18.154 39.224 18.154 39.5 C 18.154 39.776 18.378 40 18.654 40 L 20.111 40 C 20.387 40 20.611 39.776 20.611 39.5 z M 29.746 35.5 C 29.746 35.224 29.522 35 29.246 35 L 24.218999999999998 35 C 23.942999999999998 35 23.718999999999998 35.224 23.718999999999998 35.5 C 23.718999999999998 35.776 23.942999999999998 36 24.218999999999998 36 L 29.246 36 C 29.523 36 29.746 35.776 29.746 35.5 z M 29.746 33.5 C 29.746 33.224 29.522 33 29.246 33 L 27.988999999999997 33 C 27.712999999999997 33 27.488999999999997 33.224 27.488999999999997 33.5 C 27.488999999999997 33.776 27.712999999999997 34 27.988999999999997 34 L 29.246 34 C 29.523 34 29.746 33.776 29.746 33.5 z M 26.477 41.5 C 26.477 41.224 26.253 41 25.977 41 L 24.219 41 C 23.943 41 23.719 41.224 23.719 41.5 C 23.719 41.776 23.943 42 24.219 42 L 25.977 42 C 26.254 42 26.477 41.776 26.477 41.5 z M 84.744 49 L 74.714 49 C 74.438 49 74.214 48.776 74.214 48.5 C 74.214 48.224 74.438 48 74.714 48 L 84.745 48 C 85.021 48 85.245 48.224 85.245 48.5 C 85.245 48.776 85.021 49 84.744 49 z M 88.125 48.5 C 88.125 48.224 87.901 48 87.625 48 L 86.179 48 C 85.903 48 85.679 48.224 85.679 48.5 C 85.679 48.776 85.903 49 86.179 49 L 87.625 49 C 87.902 49 88.125 48.776 88.125 48.5 z M 92.18 48.5 C 92.18 48.224 91.956 48 91.68 48 L 89.134 48 C 88.858 48 88.634 48.224 88.634 48.5 C 88.634 48.776 88.858 49 89.134 49 L 91.68 49 C 91.956 49 92.18 48.776 92.18 48.5 z M 90.154 44.5 C 90.154 44.224 89.92999999999999 44 89.654 44 L 80.038 44 C 79.762 44 79.538 44.224 79.538 44.5 C 79.538 44.776 79.762 45 80.038 45 L 89.654 45 C 89.93 45 90.154 44.776 90.154 44.5 z M 78.806 44.5 C 78.806 44.224 78.582 44 78.306 44 L 77.726 44 C 77.45 44 77.226 44.224 77.226 44.5 C 77.226 44.776 77.45 45 77.726 45 L 78.306 45 C 78.583 45 78.806 44.776 78.806 44.5 z M 76.429 44.5 C 76.429 44.224 76.205 44 75.929 44 L 74.473 44 C 74.197 44 73.973 44.224 73.973 44.5 C 73.973 44.776 74.197 45 74.473 45 L 75.929 45 C 76.206 45 76.429 44.776 76.429 44.5 z M 87.591 46.5 C 87.591 46.224 87.36699999999999 46 87.091 46 L 82.064 46 C 81.788 46 81.564 46.224 81.564 46.5 C 81.564 46.776 81.788 47 82.064 47 L 87.091 47 C 87.367 47 87.591 46.776 87.591 46.5 z M 87.591 44.5 C 87.591 44.224 87.36699999999999 44 87.091 44 L 85.83399999999999 44 C 85.55799999999999 44 85.33399999999999 44.224 85.33399999999999 44.5 C 85.33399999999999 44.776 85.55799999999999 45 85.83399999999999 45 L 87.091 45 C 87.367 45 87.591 44.776 87.591 44.5 z M 81.108 46.5 C 81.108 46.224 80.884 46 80.608 46 L 78.85 46 C 78.574 46 78.35 46.224 78.35 46.5 C 78.35 46.776 78.574 47 78.85 47 L 80.60799999999999 47 C 80.885 47 81.108 46.776 81.108 46.5 z" stroke-linecap="round" />
</g>
		<g transform="matrix(1 0 0 1 0 11.5)"  >
<path style="stroke: none; stroke-width: 1; stroke-dasharray: none; stroke-linecap: butt; stroke-dashoffset: 0; stroke-linejoin: miter; stroke-miterlimit: 4; fill: rgb(234,81,103); fill-rule: nonzero; opacity: 1;" vector-effect="non-scaling-stroke"  transform=" translate(-50, -61.5)" d="M 50 74.3 C 44.167 74.29899999999999 36.349000000000004 74.16499999999999 33.351 73.92 C 29.357 73.58 28.957 69.725 28.771 63.416000000000004 L 28.759 63.043000000000006 C 28.742 62.480000000000004 28.725 61.922000000000004 28.699 61.373000000000005 C 28.700000000000003 58.409000000000006 29.006 54.962 29.498 52.410000000000004 C 30.317 49.07000000000001 31.970000000000002 49.02 35.961 48.898 C 36.562 48.88 37.193 48.861000000000004 37.847 48.826 C 37.847 48.826 38.217 48.821 38.568 48.814 C 40.129999999999995 48.78 43.781 48.7 49.861999999999995 48.7 L 50.142999999999994 48.701 C 56.157999999999994 48.701 59.788999999999994 48.779 61.33999999999999 48.812 C 61.33999999999999 48.812 62.11999999999999 48.829 62.22199999999999 48.829 C 62.80299999999999 48.861 63.43399999999999 48.881 64.03599999999999 48.898 C 68.02799999999999 49.02 69.68099999999998 49.07 70.51399999999998 52.472 C 70.99499999999998 54.979 71.29899999999998 58.424 71.29899999999998 61.432 C 71.27399999999997 61.972 71.25499999999998 62.578 71.23599999999998 63.192 L 71.22899999999997 63.414 C 71.04299999999996 69.724 70.64299999999997 73.57900000000001 66.64599999999997 73.918 C 63.658 74.165 55.839 74.299 50 74.3 L 50 74.3 z" stroke-linecap="round" />
</g>
		<g transform="matrix(1 0 0 1 0 11.5)"  >
<path style="stroke: none; stroke-width: 1; stroke-dasharray: none; stroke-linecap: butt; stroke-dashoffset: 0; stroke-linejoin: miter; stroke-miterlimit: 4; fill: rgb(71,43,41); fill-rule: nonzero; opacity: 1;" vector-effect="non-scaling-stroke"  transform=" translate(-50, -61.5)" d="M 49.86 49.4 L 50.144 49.400999999999996 C 56.19 49.400999999999996 59.81 49.479 61.355999999999995 49.513 L 61.413 49.513999999999996 C 61.794999999999995 49.522 62.049 49.526999999999994 62.181999999999995 49.528 C 62.794999999999995 49.561 63.419999999999995 49.58 64.015 49.598 C 68.135 49.723 69.146 49.858 69.827 52.606 C 70.303 55.093 70.598 58.455 70.6 61.400000000000006 C 70.574 61.971000000000004 70.55499999999999 62.575 70.536 63.187000000000005 L 70.53 63.394000000000005 C 70.34 69.86200000000001 69.889 72.94 66.59 73.22 C 63.628 73.465 55.831 73.599 50 73.6 C 44.172 73.59899999999999 36.376 73.466 33.412 73.222 C 30.110999999999997 72.942 29.660999999999998 69.86399999999999 29.47 63.392999999999994 L 29.459 63.047999999999995 C 29.442 62.483999999999995 29.425 61.92399999999999 29.4 61.373999999999995 C 29.401999999999997 58.440999999999995 29.7 55.077 30.179 52.577 C 30.852999999999998 49.857 31.863999999999997 49.723 35.983999999999995 49.598 C 36.58299999999999 49.58 37.209999999999994 49.56 37.861999999999995 49.525999999999996 C 37.977 49.523999999999994 38.273999999999994 49.519999999999996 38.58599999999999 49.513 C 39.988 49.483 43.713 49.4 49.86 49.4 M 49.863 48 C 43.771 48 40.115 48.08 38.554 48.114 C 38.175000000000004 48.122 37.817 48.126999999999995 37.811 48.126999999999995 C 37.162 48.16199999999999 36.536 48.181 35.94 48.199 C 31.955999999999996 48.32 29.762999999999998 48.387 28.81 52.277 C 28.311 54.871 28 58.379 28 61.406 C 28.031 62.071999999999996 28.049 62.751999999999995 28.071 63.437 C 28.234 68.972 28.388 74.2 33.294000000000004 74.61699999999999 C 36.294 74.864 44.14 74.999 49.999 75 C 55.859 74.999 63.704 74.864 66.705 74.616 C 71.612 74.199 71.76599999999999 68.971 71.929 63.436 C 71.95 62.751 71.97 62.071 72 61.433 C 72 58.378 71.688 54.87 71.195 52.307 C 70.235 48.387 68.03999999999999 48.32 64.05799999999999 48.199000000000005 C 63.461999999999996 48.181000000000004 62.83699999999999 48.162000000000006 62.22299999999999 48.12800000000001 C 62.11099999999999 48.12800000000001 61.85399999999999 48.123000000000005 61.44399999999999 48.114000000000004 C 59.89499999999999 48.081 56.27999999999999 48.001000000000005 50.14399999999999 48.001000000000005 C 50.099 48.001 49.863 48 49.863 48 L 49.863 48 z" stroke-linecap="round" />
</g>
		<g transform="matrix(1 0 0 1 0 11.11)"  >
<path style="stroke: none; stroke-width: 1; stroke-dasharray: none; stroke-linecap: butt; stroke-dashoffset: 0; stroke-linejoin: miter; stroke-miterlimit: 4; fill: rgb(255,255,255); fill-rule: nonzero; opacity: 1;" vector-effect="non-scaling-stroke"  transform=" translate(-50, -61.11)" d="M 49 69.947 L 46.386 69.947 L 46.386 68.21000000000001 C 46.059000000000005 68.68400000000001 45.242000000000004 69.94600000000001 43.499 69.947 C 42.629000000000005 69.947 41.158 69.315 41.158 67.421 L 41.158 56.053 L 43.772 56.053 L 43.772 66.948 C 43.772 67.23899999999999 43.796 67.746 44.751999999999995 67.737 C 45.815 67.72699999999999 46.385999999999996 66.47399999999999 46.385999999999996 66.47399999999999 L 46.385999999999996 56.053 L 49 56.053 L 49 69.947 z M 40 54.789 L 37.333 54.789 L 37.333 69.947 L 34.667 69.947 L 34.667 54.789 L 32 54.789 L 32 52.263 L 40 52.263 z M 58.842 59.286 C 58.842 58.196 58.485 57.457 58.028999999999996 56.9 C 57.577 56.342999999999996 56.91 56.052 56.062 56.052 C 55.637 56.052 55.214 56.166 54.79 56.374 C 54.365 56.579 53.914 56.936 53.614 57.391000000000005 L 53.614 52.263000000000005 L 51 52.263000000000005 L 51 69.947 L 53.614 69.947 L 53.614 68.21000000000001 C 54.119 68.78 54.854 69.96100000000001 56.227999999999994 69.947 C 58.18899999999999 69.947 58.84199999999999 68.21000000000001 58.84199999999999 66.789 L 58.84199999999999 59.286 z M 56.228 66.187 C 56.228 66.884 55.642 67.42099999999999 54.921 67.42099999999999 C 54.199999999999996 67.42099999999999 53.626 67.15299999999999 53.614 66.78899999999999 L 53.614 59.28599999999999 C 53.626 58.65099999999999 54.199999999999996 58.02299999999999 54.921 58.02299999999999 C 55.642 58.02299999999999 56.228 58.57799999999999 56.228 59.84199999999999 L 56.228 66.187 z M 68 63.632 L 68 59.696 C 68 58.434999999999995 67.342 56.053 64.053 56.053 C 60.928 56.053 60.11 58.553999999999995 60.11 59.696 L 60.11 65.643 C 60.11 66.935 60.476 67.933 61.173 68.664 C 61.877 69.395 62.852000000000004 69.748 64.10300000000001 69.748 C 65.46900000000001 69.748 66.51100000000001 69.42200000000001 67.179 68.71900000000001 C 67.884 68.045 68 67.023 68 65.643 L 68 64.895 L 65.368 64.895 L 65.368 65.527 C 65.368 66.289 65.28999999999999 66.874 65.106 67.08200000000001 C 64.92399999999999 67.31400000000001 64.586 67.417 64.05199999999999 67.42200000000001 C 63.568999999999996 67.427 63.20199999999999 67.29800000000002 63.019999999999996 67.00800000000001 C 62.833999999999996 66.74400000000001 62.736 66.28900000000002 62.736 65.58600000000001 L 62.736 63.63300000000001 L 68 63.63300000000001 z M 62.737 59.842 C 62.749 59.164 63.326 58.579 64.053 58.579 C 64.779 58.579 65.369 59.065 65.369 59.842 L 65.369 61.105 L 62.737 61.105 L 62.737 59.842 z" stroke-linecap="round" />
</g>
		<g transform="matrix(1 0 0 1 -0.63 -14.16)"  >
<path style="stroke: none; stroke-width: 1; stroke-dasharray: none; stroke-linecap: butt; stroke-dashoffset: 0; stroke-linejoin: miter; stroke-miterlimit: 4; fill: rgb(54,64,77); fill-rule: nonzero; opacity: 1;" vector-effect="non-scaling-stroke"  transform=" translate(-49.37, -35.84)" d="M 43.684 27 L 41.158 34.074 L 38.632 27 L 36.105 27 L 39.895 37.611 L 39.895 44.684 L 42.421 44.684 L 42.421 37.611 L 46.211 27 z M 60.105 31.421 L 60.105 41.21 C 60.105 41.21 59.553 42.463 58.525999999999996 42.473 C 57.601 42.482 57.57899999999999 41.974 57.57899999999999 41.684 L 57.57899999999999 31.421 L 55.053 31.421 L 55.053 42.158 C 55.053 44.053000000000004 56.474 44.684 57.315 44.684 C 59 44.684 59.79 43.421 60.105 42.946999999999996 L 60.105 44.525999999999996 L 62.631 44.525999999999996 L 62.631 31.421 L 60.105 31.421 z" stroke-linecap="round" />
</g>
		<g transform="matrix(1 0 0 1 -0.32 -12.03)"  >
<path style="stroke: none; stroke-width: 1; stroke-dasharray: none; stroke-linecap: butt; stroke-dashoffset: 0; stroke-linejoin: miter; stroke-miterlimit: 4; fill: rgb(54,64,77); fill-rule: nonzero; opacity: 1;" vector-effect="non-scaling-stroke"  transform=" translate(-49.68, -37.97)" d="M 49.684 44.684 C 47.595 44.684 45.894999999999996 42.948 45.894999999999996 40.815 L 45.894999999999996 35.131 C 45.894999999999996 32.999 47.595 31.262 49.684 31.262 C 51.772999999999996 31.262 53.473 32.998 53.473 35.131 L 53.473 40.815 C 53.474 42.949 51.773 44.684 49.684 44.684 z M 49.684 33.632 C 48.986999999999995 33.632 48.421 34.257 48.421 35.027 L 48.421 40.922 C 48.421 41.690999999999995 48.987 42.317 49.684 42.317 C 50.381 42.317 50.946999999999996 41.692 50.946999999999996 40.922 L 50.946999999999996 35.027 C 50.947 34.257 50.381 33.632 49.684 33.632 z" stroke-linecap="round" />
</g>
		<g transform="matrix(1 0 0 1 23.49 -28.79)"  >
<path style="stroke: none; stroke-width: 1; stroke-dasharray: none; stroke-linecap: butt; stroke-dashoffset: 0; stroke-linejoin: miter; stroke-miterlimit: 4; fill: rgb(253,252,239); fill-rule: nonzero; opacity: 1;" vector-effect="non-scaling-stroke"  transform=" translate(-73.49, -21.21)" d="M 80.178 28.287 C 82.06099999999999 28.287 83.695 28.287 83.718 28.287 C 85.828 28.287 87.539 26.613 87.539 24.548 C 87.539 22.746 86.237 21.243 84.504 20.887999999999998 C 84.524 20.729999999999997 84.53800000000001 20.570999999999998 84.53800000000001 20.407999999999998 C 84.53800000000001 18.269 82.766 16.534999999999997 80.58100000000002 16.534999999999997 C 79.29100000000001 16.534999999999997 78.14800000000002 17.141999999999996 77.42600000000002 18.077999999999996 C 77.24100000000001 15.696999999999996 75.06800000000001 13.859999999999996 72.52600000000001 14.164999999999996 C 70.66700000000002 14.387999999999996 69.129 15.793999999999995 68.787 17.595999999999997 C 68.677 18.173999999999996 68.68900000000001 18.734999999999996 68.798 19.260999999999996 C 68.3 18.735999999999997 67.59 18.404999999999994 66.8 18.404999999999994 C 65.354 18.404999999999994 64.173 19.506999999999994 64.08 20.898999999999994 C 63.423 20.756999999999994 62.708999999999996 20.765999999999995 61.957 21.041999999999994 C 60.519 21.569999999999993 59.495 22.894999999999996 59.435 24.397999999999996 C 59.35 26.530999999999995 61.092 28.286999999999995 63.253 28.286999999999995 C 63.417 28.286999999999995 63.994 28.286999999999995 64.127 28.286999999999995 L 72.06099999999999 28.286999999999995 M 73.701 28.287 L 74.06099999999999 28.287" stroke-linecap="round" />
</g>
		<g transform="matrix(1 0 0 1 23.48 -28.79)"  >
<path style="stroke: none; stroke-width: 1; stroke-dasharray: none; stroke-linecap: butt; stroke-dashoffset: 0; stroke-linejoin: miter; stroke-miterlimit: 4; fill: rgb(71,43,41); fill-rule: nonzero; opacity: 1;" vector-effect="non-scaling-stroke"  transform=" translate(-73.48, -21.21)" d="M 83.718 28.788 L 80.178 28.788 C 79.902 28.788 79.678 28.564 79.678 28.288 C 79.678 28.012 79.902 27.788 80.178 27.788 L 83.718 27.788 C 85.549 27.788 87.039 26.335 87.039 24.549 C 87.039 23.025 85.931 21.691 84.403 21.378999999999998 C 84.147 21.325999999999997 83.974 21.084999999999997 84.007 20.825 C 84.025 20.688 84.037 20.55 84.037 20.407999999999998 C 84.037 18.548 82.486 17.034999999999997 80.58000000000001 17.034999999999997 C 79.48800000000001 17.034999999999997 78.48200000000001 17.525999999999996 77.82000000000001 18.383999999999997 C 77.694 18.548 77.47900000000001 18.615 77.281 18.557999999999996 C 77.08300000000001 18.497999999999998 76.94200000000001 18.323999999999995 76.926 18.117999999999995 C 76.84700000000001 17.097999999999995 76.361 16.173999999999996 75.557 15.513999999999996 C 74.72800000000001 14.833999999999996 73.672 14.534999999999997 72.584 14.660999999999996 C 70.938 14.857999999999995 69.578 16.102999999999994 69.277 17.687999999999995 C 69.183 18.182999999999996 69.186 18.677999999999994 69.286 19.159999999999997 C 69.331 19.378999999999998 69.226 19.600999999999996 69.028 19.705 C 68.831 19.807 68.58800000000001 19.767999999999997 68.43400000000001 19.604999999999997 C 68.00600000000001 19.153999999999996 67.42500000000001 18.904999999999998 66.799 18.904999999999998 C 65.63000000000001 18.904999999999998 64.65400000000001 19.796 64.578 20.932 C 64.568 21.078 64.49600000000001 21.209999999999997 64.38000000000001 21.298 C 64.26400000000001 21.384999999999998 64.11600000000001 21.418 63.97400000000001 21.386999999999997 C 63.33500000000001 21.248999999999995 62.73100000000001 21.288999999999998 62.128000000000014 21.511999999999997 C 60.866000000000014 21.974999999999998 59.984000000000016 23.142999999999997 59.933000000000014 24.416999999999998 C 59.89800000000002 25.293 60.216000000000015 26.125999999999998 60.82800000000002 26.762999999999998 C 61.463000000000015 27.423 62.32400000000002 27.787 63.25100000000002 27.787 L 72.05800000000002 27.787 C 72.33400000000002 27.787 72.55800000000002 28.011 72.55800000000002 28.287 C 72.55800000000002 28.563 72.33400000000002 28.787 72.05800000000002 28.787 L 63.25100000000002 28.787 C 62.06600000000002 28.787 60.920000000000016 28.302 60.10700000000002 27.456 C 59.30400000000002 26.62 58.88800000000002 25.527 58.93400000000002 24.378 C 59.00100000000002 22.703 60.14600000000002 21.174 61.783000000000015 20.572 C 62.393000000000015 20.346999999999998 63.02300000000002 20.268 63.66300000000002 20.328 C 64.00700000000002 18.932 65.29200000000002 17.904 66.79800000000002 17.904 C 67.29100000000001 17.904 67.77500000000002 18.017 68.21200000000002 18.227 C 68.22100000000002 17.985 68.24900000000002 17.743000000000002 68.29500000000002 17.5 C 68.67600000000002 15.491 70.39100000000002 13.915 72.46500000000002 13.667 C 73.83000000000001 13.5 75.15000000000002 13.885 76.19100000000002 14.738 C 76.93900000000002 15.350999999999999 77.46900000000002 16.147 77.73700000000002 17.04 C 78.52800000000002 16.392 79.52300000000002 16.032999999999998 80.57900000000002 16.032999999999998 C 83.03700000000002 16.032999999999998 85.03600000000002 17.994999999999997 85.03600000000002 20.406 C 85.03600000000002 20.439999999999998 85.03600000000002 20.474 85.03500000000001 20.509 C 86.799 21.064 88.03800000000001 22.697 88.03800000000001 24.547 C 88.039 26.886 86.101 28.788 83.718 28.788 z M 74.061 28.788 L 73.70100000000001 28.788 C 73.42500000000001 28.788 73.20100000000001 28.564 73.20100000000001 28.288 C 73.20100000000001 28.012 73.42500000000001 27.788 73.70100000000001 27.788 L 74.061 27.788 C 74.337 27.788 74.561 28.012 74.561 28.288 C 74.561 28.564 74.337 28.788 74.061 28.788 z" stroke-linecap="round" />
</g>
		<g transform="matrix(1 0 0 1 33.78 -28.07)"  >
<path style="stroke: none; stroke-width: 1; stroke-dasharray: none; stroke-linecap: butt; stroke-dashoffset: 0; stroke-linejoin: miter; stroke-miterlimit: 4; fill: rgb(71,43,41); fill-rule: nonzero; opacity: 1;" vector-effect="non-scaling-stroke"  transform=" translate(-83.78, -21.93)" d="M 82.011 22.984 C 81.993 22.984 81.975 22.982000000000003 81.95599999999999 22.978 C 81.82099999999998 22.948 81.73599999999999 22.814 81.767 22.679000000000002 C 81.804 22.515 81.86099999999999 22.354000000000003 81.937 22.200000000000003 C 82.541 20.976000000000003 84.209 20.523000000000003 85.65899999999999 21.193 C 85.78399999999999 21.251 85.839 21.399 85.78099999999999 21.524 C 85.72299999999998 21.650000000000002 85.574 21.703 85.449 21.646 C 84.248 21.09 82.872 21.438000000000002 82.386 22.42 C 82.32799999999999 22.538 82.28399999999999 22.662000000000003 82.256 22.787000000000003 C 82.229 22.905 82.126 22.984 82.011 22.984 z" stroke-linecap="round" />
</g>
		<g transform="matrix(1 0 0 1 26.3 -21.71)"  >
<path style="stroke: none; stroke-width: 1; stroke-dasharray: none; stroke-linecap: butt; stroke-dashoffset: 0; stroke-linejoin: miter; stroke-miterlimit: 4; fill: rgb(71,43,41); fill-rule: nonzero; opacity: 1;" vector-effect="non-scaling-stroke"  transform=" translate(-76.3, -28.29)" d="M 76.852 28.788 L 75.745 28.788 C 75.46900000000001 28.788 75.245 28.564 75.245 28.288 C 75.245 28.012 75.46900000000001 27.788 75.745 27.788 L 76.852 27.788 C 77.128 27.788 77.352 28.012 77.352 28.288 C 77.352 28.564 77.129 28.788 76.852 28.788 z" stroke-linecap="round" />
</g>
		<g transform="matrix(1 0 0 1 -26 21.17)"  >
<path style="stroke: none; stroke-width: 1; stroke-dasharray: none; stroke-linecap: butt; stroke-dashoffset: 0; stroke-linejoin: miter; stroke-miterlimit: 4; fill: rgb(253,252,239); fill-rule: nonzero; opacity: 1;" vector-effect="non-scaling-stroke"  transform=" translate(-24, -71.17)" d="M 25.337 80.423 C 25.337 80.423 37.028 80.423 37.099000000000004 80.423 C 39.79900000000001 80.423 41.987 78.23400000000001 41.987 75.534 C 41.987 73.179 40.321000000000005 71.21300000000001 38.103 70.75 C 38.129000000000005 70.544 38.146 70.335 38.146 70.122 C 38.146 67.326 35.879 65.059 33.083 65.059 C 31.432 65.059 29.97 65.853 29.046 67.076 C 28.81 63.962999999999994 26.029 61.56199999999999 22.776 61.959999999999994 C 20.397 62.25099999999999 18.43 64.08999999999999 17.992 66.446 C 17.852 67.202 17.866 67.935 18.006 68.623 C 17.368 67.936 16.46 67.504 15.449 67.504 C 13.599 67.504 12.088 68.94500000000001 11.969 70.765 C 11.129 70.579 10.215 70.591 9.251999999999999 70.953 C 7.411999999999999 71.644 6.1019999999999985 73.376 6.024999999999999 75.34 C 5.915999999999999 78.129 8.145 80.425 10.909999999999998 80.425 C 11.12 80.425 11.857999999999999 80.425 12.027999999999999 80.425 L 22.179 80.425" stroke-linecap="round" />
</g>
		<g transform="matrix(1 0 0 1 -25.99 21.17)"  >
<path style="stroke: none; stroke-width: 1; stroke-dasharray: none; stroke-linecap: butt; stroke-dashoffset: 0; stroke-linejoin: miter; stroke-miterlimit: 4; fill: rgb(71,43,41); fill-rule: nonzero; opacity: 1;" vector-effect="non-scaling-stroke"  transform=" translate(-24.01, -71.17)" d="M 37.099 80.923 L 25.337 80.923 C 25.061 80.923 24.837 80.699 24.837 80.423 C 24.837 80.147 25.061 79.923 25.337 79.923 L 37.099000000000004 79.923 C 39.519000000000005 79.923 41.48800000000001 77.95400000000001 41.48800000000001 75.534 C 41.48800000000001 73.468 40.022000000000006 71.661 38.00200000000001 71.239 C 37.74700000000001 71.186 37.57600000000001 70.946 37.60800000000001 70.687 C 37.631000000000014 70.50099999999999 37.64700000000001 70.313 37.64700000000001 70.122 C 37.64700000000001 67.605 35.600000000000016 65.559 33.085000000000015 65.559 C 31.647000000000016 65.559 30.320000000000014 66.222 29.447000000000017 67.377 C 29.322000000000017 67.54299999999999 29.109000000000016 67.61399999999999 28.907000000000018 67.55499999999999 C 28.708000000000016 67.496 28.56500000000002 67.321 28.55000000000002 67.11399999999999 C 28.44600000000002 65.737 27.77100000000002 64.44299999999998 26.700000000000017 63.56499999999999 C 25.61700000000002 62.67699999999999 24.244000000000018 62.28299999999999 22.840000000000018 62.45599999999999 C 20.674000000000017 62.72199999999999 18.884000000000018 64.39899999999999 18.487000000000016 66.53699999999999 C 18.363000000000017 67.204 18.367000000000015 67.87199999999999 18.500000000000018 68.523 C 18.54400000000002 68.743 18.438000000000017 68.96499999999999 18.238000000000017 69.067 C 18.038000000000018 69.17099999999999 17.795000000000016 69.127 17.64300000000002 68.963 C 17.06800000000002 68.345 16.290000000000017 68.00399999999999 15.453000000000019 68.00399999999999 C 13.884000000000018 68.00399999999999 12.575000000000019 69.23199999999999 12.472000000000019 70.79799999999999 C 12.46200000000002 70.94399999999999 12.390000000000018 71.07699999999998 12.27300000000002 71.16399999999999 C 12.156000000000018 71.25299999999999 12.005000000000019 71.28399999999999 11.86500000000002 71.25299999999999 C 11.02400000000002 71.06799999999998 10.22800000000002 71.12099999999998 9.43200000000002 71.41999999999999 C 7.763000000000019 72.04699999999998 6.59700000000002 73.62899999999999 6.5290000000000195 75.35799999999999 C 6.48200000000002 76.56499999999998 6.91600000000002 77.70799999999998 7.7500000000000195 78.576 C 8.585000000000019 79.445 9.70900000000002 79.92399999999999 10.91400000000002 79.92399999999999 L 22.18300000000002 79.92399999999999 C 22.45900000000002 79.92399999999999 22.68300000000002 80.148 22.68300000000002 80.42399999999999 C 22.68300000000002 80.69999999999999 22.45900000000002 80.92399999999999 22.18300000000002 80.92399999999999 L 10.912 80.92399999999999 C 9.433 80.92399999999999 8.054 80.336 7.0280000000000005 79.27 C 6.003 78.204 5.470000000000001 76.801 5.5280000000000005 75.32 C 5.611000000000001 73.19399999999999 7.038 71.25099999999999 9.078 70.485 C 9.878 70.184 10.703999999999999 70.087 11.546 70.18599999999999 C 11.923 68.36399999999999 13.543999999999999 67.00399999999999 15.450999999999999 67.00399999999999 C 16.134999999999998 67.00399999999999 16.805 67.184 17.395 67.514 C 17.395 67.128 17.43 66.74199999999999 17.501 66.35499999999999 C 17.978 63.79299999999999 20.122 61.78199999999999 22.716 61.46399999999999 C 24.395 61.25899999999999 26.036 61.72999999999999 27.332 62.791999999999994 C 28.335 63.614999999999995 29.048000000000002 64.743 29.37 65.985 C 30.382 65.069 31.689 64.559 33.084 64.559 C 36.151 64.559 38.646 67.05499999999999 38.646 70.122 C 38.646 70.205 38.644 70.288 38.639 70.37 C 40.893 71.043 42.487 73.146 42.487 75.534 C 42.488 78.507 40.071 80.923 37.099 80.923 z" stroke-linecap="round" />
</g>
		<g transform="matrix(1 0 0 1 -32.86 22.98)"  >
<path style="stroke: none; stroke-width: 1; stroke-dasharray: none; stroke-linecap: butt; stroke-dashoffset: 0; stroke-linejoin: miter; stroke-miterlimit: 4; fill: rgb(253,252,239); fill-rule: nonzero; opacity: 1;" vector-effect="non-scaling-stroke"  transform=" translate(-17.14, -72.98)" d="M 22.504 69.655 C 20.696 69.536 19.139000000000003 70.785 19.028000000000002 72.444 C 19.014000000000003 72.65 19.023000000000003 72.85300000000001 19.053 73.05 C 18.704 72.65599999999999 18.188000000000002 72.389 17.595000000000002 72.35 C 16.51 72.279 15.573000000000002 72.99499999999999 15.437000000000003 73.97 C 15.240000000000004 73.916 15.034000000000002 73.88 14.821000000000003 73.866 C 13.239000000000003 73.762 11.877000000000002 74.855 11.779000000000003 76.307" stroke-linecap="round" />
</g>
		<g transform="matrix(1 0 0 1 -32.86 22.98)"  >
<path style="stroke: none; stroke-width: 1; stroke-dasharray: none; stroke-linecap: butt; stroke-dashoffset: 0; stroke-linejoin: miter; stroke-miterlimit: 4; fill: rgb(71,43,41); fill-rule: nonzero; opacity: 1;" vector-effect="non-scaling-stroke"  transform=" translate(-17.14, -72.98)" d="M 11.78 76.556 C 11.774 76.556 11.767999999999999 76.556 11.763 76.55499999999999 C 11.625 76.54599999999999 11.521 76.42699999999999 11.53 76.28899999999999 C 11.636999999999999 74.70199999999998 13.117999999999999 73.49999999999999 14.838 73.61499999999998 C 14.975 73.62399999999998 15.110999999999999 73.64099999999998 15.247 73.66799999999998 C 15.521 72.69999999999997 16.503 72.02299999999998 17.613 72.10099999999998 C 18.038 72.12799999999999 18.436 72.25999999999999 18.777 72.48299999999999 C 18.777 72.46399999999998 18.779 72.44599999999998 18.78 72.42699999999999 C 18.900000000000002 70.63199999999999 20.567 69.267 22.522000000000002 69.40599999999999 C 22.660000000000004 69.41499999999999 22.764000000000003 69.53399999999999 22.755000000000003 69.672 C 22.746000000000002 69.81 22.631000000000004 69.92699999999999 22.489000000000004 69.904 C 20.838000000000005 69.79899999999999 19.381000000000004 70.941 19.279000000000003 72.461 C 19.267000000000003 72.645 19.275000000000002 72.831 19.302000000000003 73.014 C 19.319000000000003 73.12299999999999 19.261000000000003 73.231 19.161000000000005 73.27799999999999 C 19.061000000000007 73.32499999999999 18.942000000000004 73.3 18.868000000000006 73.21699999999998 C 18.545000000000005 72.85199999999999 18.088000000000005 72.63299999999998 17.581000000000007 72.59999999999998 C 16.630000000000006 72.56599999999997 15.806000000000006 73.15599999999998 15.687000000000006 74.00399999999998 C 15.677000000000007 74.07499999999997 15.637000000000006 74.13899999999998 15.577000000000007 74.17899999999997 C 15.517000000000007 74.21799999999998 15.444000000000006 74.22999999999998 15.373000000000006 74.21099999999997 C 15.186000000000007 74.15999999999997 14.996000000000006 74.12799999999997 14.806000000000006 74.11399999999998 C 13.366000000000007 74.02199999999998 12.119000000000007 75.00999999999998 12.031000000000006 76.32299999999998 C 12.02 76.455 11.91 76.556 11.78 76.556 z" stroke-linecap="round" />
</g>
		<g transform="matrix(1 0 0 1 -13.22 22.06)"  >
<path style="stroke: none; stroke-width: 1; stroke-dasharray: none; stroke-linecap: butt; stroke-dashoffset: 0; stroke-linejoin: miter; stroke-miterlimit: 4; fill: rgb(253,252,239); fill-rule: nonzero; opacity: 1;" vector-effect="non-scaling-stroke"  transform=" translate(-36.78, -72.06)" d="M 39.079 71.323 C 37.38 70.52199999999999 35.415 71.089 34.69 72.58999999999999 C 34.599999999999994 72.776 34.533 72.969 34.489 73.16399999999999" stroke-linecap="round" />
</g>
		<g transform="matrix(1 0 0 1 -13.22 22.06)"  >
<path style="stroke: none; stroke-width: 1; stroke-dasharray: none; stroke-linecap: butt; stroke-dashoffset: 0; stroke-linejoin: miter; stroke-miterlimit: 4; fill: rgb(71,43,41); fill-rule: nonzero; opacity: 1;" vector-effect="non-scaling-stroke"  transform=" translate(-36.78, -72.06)" d="M 34.489 73.414 C 34.471 73.414 34.452 73.412 34.433 73.408 C 34.299 73.377 34.214 73.243 34.245 73.108 C 34.294 72.891 34.367999999999995 72.68 34.464 72.48100000000001 C 35.247 70.86000000000001 37.366 70.242 39.185 71.096 C 39.31 71.156 39.364000000000004 71.304 39.305 71.429 C 39.246 71.555 39.096 71.605 38.972 71.549 C 37.398 70.805 35.578 71.322 34.914 72.69800000000001 C 34.834 72.86300000000001 34.773 73.03800000000001 34.732 73.21900000000001 C 34.706 73.336 34.603 73.414 34.489 73.414 z" stroke-linecap="round" />
</g>
</g>
</g>
</svg>